<svg id="Layer_1" data-name="Layer 1" xmlns="http://www.w3.org/2000/svg" xmlns:xlink="http://www.w3.org/1999/xlink" viewBox="0 0 523.22 749"><defs><style>.cls-1{fill:none;}.cls-2{fill:url(#linear-gradient);}.cls-3{fill:url(#Áåçûìÿííûé_ãðàäèåíò_3);}.cls-4{fill:url(#linear-gradient-2);}.cls-5{fill:#fff;}.cls-6{fill:#681313;}.cls-7{fill:#d65858;}.cls-8{fill:#bcbeff;}.cls-9{opacity:0.11;}.cls-10{fill:#0b0244;}.cls-10,.cls-11{opacity:0.4;}.cls-12{clip-path:url(#clip-path);}.cls-13{fill:#24126a;}.cls-14{fill:url(#Áåçûìÿííûé_ãðàäèåíò_3-2);}.cls-15{fill:url(#Áåçûìÿííûé_ãðàäèåíò_3-3);}.cls-16{fill:url(#Áåçûìÿííûé_ãðàäèåíò_3-4);}.cls-17{clip-path:url(#clip-path-2);}.cls-18{fill:url(#linear-gradient-3);}.cls-19{fill:url(#linear-gradient-4);}.cls-20{fill:url(#linear-gradient-5);}</style><linearGradient id="linear-gradient" x1="257.07" y1="380.14" x2="473.18" y2="282.37" gradientUnits="userSpaceOnUse"><stop offset="0" stop-color="#ff0007"/><stop offset="0.14" stop-color="#ff050c"/><stop offset="0.31" stop-color="#ff131a"/><stop offset="0.49" stop-color="#ff2b31"/><stop offset="0.68" stop-color="#ff4c51"/><stop offset="0.88" stop-color="#ff767a"/><stop offset="1" stop-color="#ff9497"/></linearGradient><linearGradient id="Áåçûìÿííûé_ãðàäèåíò_3" x1="-468.83" y1="3519.62" x2="-468.83" y2="3493.67" gradientTransform="matrix(-1, 0, 0, 1, -51.45, -3299.29)" gradientUnits="userSpaceOnUse"><stop offset="0" stop-color="#c0bff6"/><stop offset="0.29" stop-color="#c5c4f7"/><stop offset="0.64" stop-color="#d3d2f9"/><stop offset="1" stop-color="#e9e9fd"/></linearGradient><linearGradient id="linear-gradient-2" x1="352.12" y1="558.57" x2="352.43" y2="116.59" gradientUnits="userSpaceOnUse"><stop offset="0" stop-color="#ff7f8d"/><stop offset="0.17" stop-color="#fe8492"/><stop offset="0.37" stop-color="#fb91a0"/><stop offset="0.58" stop-color="#f7a8b8"/><stop offset="0.8" stop-color="#f0c7d9"/><stop offset="1" stop-color="#e9e9fd"/></linearGradient><clipPath id="clip-path"><polygon class="cls-1" points="290.82 280.73 423.87 353.59 423.87 249.37 290.82 280.73"/></clipPath><linearGradient id="Áåçûìÿííûé_ãðàäèåíò_3-2" x1="-30.51" y1="171.37" x2="294.71" y2="302.88" gradientTransform="matrix(1, 0, 0, 1, 0, 0)" xlink:href="#Áåçûìÿííûé_ãðàäèåíò_3"/><linearGradient id="Áåçûìÿííûé_ãðàäèåíò_3-3" x1="429.7" y1="523.77" x2="339.82" y2="321.08" gradientTransform="matrix(1, 0, 0, 1, 0, 0)" xlink:href="#Áåçûìÿííûé_ãðàäèåíò_3"/><linearGradient id="Áåçûìÿííûé_ãðàäèåíò_3-4" x1="268.7" y1="326.93" x2="511.6" y2="430.47" gradientTransform="matrix(1, 0, 0, 1, 0, 0)" xlink:href="#Áåçûìÿííûé_ãðàäèåíò_3"/><clipPath id="clip-path-2"><polygon class="cls-1" points="290.82 280.73 423.87 353.59 315.67 490.83 200.1 475.58 80.56 326.59 290.82 280.73"/></clipPath><linearGradient id="linear-gradient-3" x1="137.48" y1="239.3" x2="411.89" y2="350.26" gradientUnits="userSpaceOnUse"><stop offset="0" stop-color="#ffa2a4"/><stop offset="0.24" stop-color="#ffa7a7"/><stop offset="0.51" stop-color="#ffb5b2"/><stop offset="0.81" stop-color="#ffcdc2"/><stop offset="1" stop-color="#ffe0d0"/></linearGradient><linearGradient id="linear-gradient-4" x1="384.66" y1="422.21" x2="331.79" y2="302.97" xlink:href="#linear-gradient-3"/><linearGradient id="linear-gradient-5" x1="219.15" y1="305.81" x2="396.41" y2="381.37" gradientUnits="userSpaceOnUse"><stop offset="0" stop-color="#ff4f3f"/><stop offset="0.12" stop-color="#ff5444"/><stop offset="0.27" stop-color="#ff6152"/><stop offset="0.43" stop-color="#ff766a"/><stop offset="0.59" stop-color="#ff958b"/><stop offset="0.76" stop-color="#ffbcb6"/><stop offset="0.93" stop-color="#ffebe9"/><stop offset="1" stop-color="#fff"/></linearGradient></defs><path class="cls-2" d="M278.84,116.81l8.65-5v0a2.53,2.53,0,0,1,2.45.22l142,82.12c2.13,1.24,3.86,4.55,3.86,7.39l-.23,348.73a3.39,3.39,0,0,1-1.37,3.11h0l-8.64,4.95-.35-18L297.55,466.61c-2.14-1.23-3.87-4.54-3.87-7.39l.23-333.92c-.33,1-.59,1.82-.62,1.84S278.84,116.81,278.84,116.81Z"/><path class="cls-3" d="M435.71,200.43l-35.09,20.22-6.48-3.75,38.5-22.18A9.68,9.68,0,0,1,435.71,200.43Z"/><path class="cls-4" d="M281.15,476l142,82.12c2.14,1.23,3.87-.08,3.87-2.92l.23-348.73c0-2.84-1.72-6.15-3.86-7.39L281.39,117c-2.13-1.23-3.86.08-3.87,2.93l-.23,348.72C277.29,471.5,279,474.81,281.15,476Z"/><path class="cls-5" d="M423.4,199.12,281.39,117a2.26,2.26,0,0,0-3.09.31,2.69,2.69,0,0,1,2.06.38l142,82.12c2.14,1.23,3.87,4.54,3.87,7.39L426,555.92a4,4,0,0,1-.78,2.62c1.09-.29,1.81-1.47,1.81-3.3l.23-348.73C427.27,203.67,425.54,200.36,423.4,199.12Z"/><polygon class="cls-6" points="280.52 460.2 423.71 543 423.99 221.46 280.79 138.66 280.52 460.2"/><path class="cls-7" d="M337.31,162.85l27.09,15.72c.79.46,1.47.59,1.76-.15a2.48,2.48,0,0,0,.15-.91h0a4.58,4.58,0,0,0-1.91-3.66L337,158c-.09-.05-.17-.14-.25-.12-.86.24-1,.41-1,1.71l.13.36A2.87,2.87,0,0,0,337.31,162.85Z"/><path class="cls-8" d="M336.78,157.91a2.43,2.43,0,0,0-.16.91,4.59,4.59,0,0,0,1.92,3.66l27.37,15.83c.09.05.17.07.25.11a1.11,1.11,0,0,1-1.76.53L337,163.13a4.59,4.59,0,0,1-1.91-3.66C335.11,158.17,335.84,157.53,336.78,157.91Z"/><polygon class="cls-10" points="348.07 313.36 316.58 496.53 176.1 527.74 230.31 559.04 230.31 559.04 232.84 560.5 263.15 558.32 277.76 586.43 317.26 609.24 371.29 528.16 348.07 313.36"/><g class="cls-11"><g class="cls-12"><polygon class="cls-13" points="209.8 457.81 452.69 249.37 230.96 401.82 209.8 457.81"/><polygon class="cls-14" points="452.69 249.37 188.64 377.38 101.89 327.3 452.69 249.37"/><polygon class="cls-15" points="452.69 249.37 230.96 401.82 317.7 451.9 452.69 249.37"/><polygon class="cls-16" points="230.96 401.82 452.69 249.37 188.64 377.38 209.8 457.81 230.96 401.82"/><polygon class="cls-5" points="184.78 375.15 452.69 249.37 188.64 377.38 184.78 375.15"/><polygon class="cls-5" points="230.96 401.82 452.69 249.37 234.43 403.82 230.96 401.82"/></g></g><g class="cls-17"><polygon class="cls-6" points="209.8 457.81 452.69 249.37 230.96 401.82 209.8 457.81"/><polygon class="cls-18" points="452.69 249.37 188.64 377.38 101.89 327.3 452.69 249.37"/><polygon class="cls-19" points="452.69 249.37 230.96 401.82 317.7 451.9 452.69 249.37"/><polygon class="cls-5" points="446.64 253.53 317.05 447.97 233.77 399.88 230.96 401.82 317.7 451.9 452.69 249.37 446.64 253.53"/><polygon class="cls-20" points="230.96 401.82 452.69 249.37 188.64 377.38 209.8 457.81 230.96 401.82"/><polygon class="cls-5" points="184.78 375.15 452.69 249.37 188.64 377.38 184.78 375.15"/><polygon class="cls-5" points="230.96 401.82 452.69 249.37 234.43 403.82 230.96 401.82"/></g></svg>