<svg id="Layer_1" data-name="Layer 1" xmlns="http://www.w3.org/2000/svg" xmlns:xlink="http://www.w3.org/1999/xlink" viewBox="0 0 523.22 749"><defs><style>.cls-1{fill:none;}.cls-2{fill:#6b5e9a;opacity:0.7;}.cls-3{opacity:0.4;}.cls-4{fill:#0b0244;}.cls-5{fill:url(#linear-gradient);}.cls-6{opacity:0.51;}.cls-7{fill:#9b3d3d;}.cls-8{fill:url(#linear-gradient-2);}.cls-9{fill:url(#linear-gradient-3);}.cls-10{fill:#681313;}.cls-11{fill:url(#linear-gradient-4);}.cls-12{fill:#b1b1b1;}.cls-13{fill:#e42320;}.cls-14{fill:#d9d9d9;}.cls-15{fill:#fff;}.cls-16{clip-path:url(#clip-path);}.cls-17{fill:#24126a;}.cls-18{fill:url(#Áåçûìÿííûé_ãðàäèåíò_3);}.cls-19{fill:url(#Áåçûìÿííûé_ãðàäèåíò_3-2);}.cls-20{fill:url(#Áåçûìÿííûé_ãðàäèåíò_3-3);}.cls-21{clip-path:url(#clip-path-2);}.cls-22{fill:url(#linear-gradient-5);}.cls-23{fill:url(#linear-gradient-6);}.cls-24{fill:url(#linear-gradient-7);}.cls-25{clip-path:url(#clip-path-3);}.cls-26{fill:url(#Áåçûìÿííûé_ãðàäèåíò_3-4);}.cls-27{fill:url(#Áåçûìÿííûé_ãðàäèåíò_3-5);}.cls-28{fill:url(#Áåçûìÿííûé_ãðàäèåíò_3-6);}.cls-29{clip-path:url(#clip-path-4);}.cls-30{fill:url(#linear-gradient-8);}.cls-31{fill:url(#linear-gradient-9);}.cls-32{fill:url(#linear-gradient-10);}</style><linearGradient id="linear-gradient" x1="306.84" y1="503.62" x2="306.84" y2="141.01" gradientTransform="matrix(-1, 0, 0, 1, 613.19, 0)" gradientUnits="userSpaceOnUse"><stop offset="0" stop-color="#ff8f92"/><stop offset="0.24" stop-color="#ff9497"/><stop offset="0.53" stop-color="#ffa2a5"/><stop offset="0.84" stop-color="#ffbabc"/><stop offset="1" stop-color="#ffc9cb"/></linearGradient><linearGradient id="linear-gradient-2" x1="300.94" y1="503.62" x2="300.94" y2="151.2" gradientTransform="matrix(-1, 0, 0, 1, 613.19, 0)" gradientUnits="userSpaceOnUse"><stop offset="0" stop-color="#efacac"/><stop offset="0.2" stop-color="#f0b1b1"/><stop offset="0.43" stop-color="#f3bfbf"/><stop offset="0.69" stop-color="#f7d7d7"/><stop offset="0.95" stop-color="#fef8f8"/><stop offset="1" stop-color="#fff"/></linearGradient><linearGradient id="linear-gradient-3" x1="258.11" y1="337.68" x2="447.93" y2="337.68" gradientTransform="matrix(-1, 0, 0, 1, 613.19, 0)" gradientUnits="userSpaceOnUse"><stop offset="0" stop-color="#ff2e34"/><stop offset="1" stop-color="#787878"/></linearGradient><linearGradient id="linear-gradient-4" x1="348.98" y1="511.5" x2="348.98" y2="170.69" gradientTransform="matrix(-1, 0, 0, 1, 613.19, 0)" gradientUnits="userSpaceOnUse"><stop offset="0" stop-color="#fedfe4"/><stop offset="0.34" stop-color="#fee4e8"/><stop offset="0.75" stop-color="#fff2f4"/><stop offset="1" stop-color="#fff"/></linearGradient><clipPath id="clip-path"><polygon class="cls-1" points="249.63 361.13 354.77 418.71 354.77 336.35 249.63 361.13"/></clipPath><linearGradient id="Áåçûìÿííûé_ãðàäèåíò_3" x1="-4.31" y1="274.71" x2="252.69" y2="378.64" gradientUnits="userSpaceOnUse"><stop offset="0" stop-color="#c0bff6"/><stop offset="0.29" stop-color="#c5c4f7"/><stop offset="0.64" stop-color="#d3d2f9"/><stop offset="1" stop-color="#e9e9fd"/></linearGradient><linearGradient id="Áåçûìÿííûé_ãðàäèåíò_3-2" x1="359.37" y1="553.2" x2="288.34" y2="393.02" xlink:href="#Áåçûìÿííûé_ãðàäèåíò_3"/><linearGradient id="Áåçûìÿííûé_ãðàäèåíò_3-3" x1="232.14" y1="397.64" x2="424.09" y2="479.47" xlink:href="#Áåçûìÿííûé_ãðàäèåíò_3"/><clipPath id="clip-path-2"><polygon class="cls-1" points="249.63 361.13 354.77 418.71 269.26 527.16 177.93 515.12 83.46 397.38 249.63 361.13"/></clipPath><linearGradient id="linear-gradient-5" x1="128.44" y1="328.39" x2="345.29" y2="416.08" gradientUnits="userSpaceOnUse"><stop offset="0" stop-color="#ffa2a4"/><stop offset="0.24" stop-color="#ffa7a7"/><stop offset="0.51" stop-color="#ffb5b2"/><stop offset="0.81" stop-color="#ffcdc2"/><stop offset="1" stop-color="#ffe0d0"/></linearGradient><linearGradient id="linear-gradient-6" x1="323.78" y1="472.94" x2="282" y2="378.71" xlink:href="#linear-gradient-5"/><linearGradient id="linear-gradient-7" x1="192.98" y1="380.95" x2="333.07" y2="440.67" gradientUnits="userSpaceOnUse"><stop offset="0" stop-color="#ff4f3f"/><stop offset="0.12" stop-color="#ff5444"/><stop offset="0.27" stop-color="#ff6152"/><stop offset="0.43" stop-color="#ff766a"/><stop offset="0.59" stop-color="#ff958b"/><stop offset="0.76" stop-color="#ffbcb6"/><stop offset="0.93" stop-color="#ffebe9"/><stop offset="1" stop-color="#fff"/></linearGradient><clipPath id="clip-path-3"><polygon class="cls-1" points="242.99 263.58 332.52 343.29 343.34 296.32 325.92 263.16 242.99 263.58"/></clipPath><linearGradient id="Áåçûìÿííûé_ãðàäèåíò_3-4" x1="-41.68" y1="167.83" x2="215.32" y2="271.76" gradientTransform="translate(93.24 -31.85) rotate(12.98)" xlink:href="#Áåçûìÿííûé_ãðàäèåíò_3"/><linearGradient id="Áåçûìÿííûé_ãðàäèåíò_3-5" x1="322" y1="446.32" x2="250.98" y2="286.14" gradientTransform="translate(93.24 -31.85) rotate(12.98)" xlink:href="#Áåçûìÿííûé_ãðàäèåíò_3"/><linearGradient id="Áåçûìÿííûé_ãðàäèåíò_3-6" x1="194.77" y1="290.76" x2="386.72" y2="372.59" gradientTransform="translate(93.24 -31.85) rotate(12.98)" xlink:href="#Áåçûìÿííûé_ãðàäèåíò_3"/><clipPath id="clip-path-4"><polygon class="cls-1" points="242.99 263.58 332.52 343.29 224.84 429.77 138.54 397.53 72.93 261.58 242.99 263.58"/></clipPath><linearGradient id="linear-gradient-8" x1="91.07" y1="221.51" x2="307.93" y2="309.2" gradientTransform="translate(93.24 -31.85) rotate(12.98)" xlink:href="#linear-gradient-5"/><linearGradient id="linear-gradient-9" x1="286.41" y1="366.06" x2="244.63" y2="271.83" gradientTransform="translate(93.24 -31.85) rotate(12.98)" xlink:href="#linear-gradient-5"/><linearGradient id="linear-gradient-10" x1="155.62" y1="274.07" x2="295.7" y2="333.79" gradientTransform="translate(93.24 -31.85) rotate(12.98)" xlink:href="#linear-gradient-7"/></defs><path class="cls-2" d="M283.73,576.25,163,506.52a2.36,2.36,0,0,1,0-4.1l126.28-72.91.29-.17,126.56,73.07a2.37,2.37,0,0,1,0,4.11L295.3,576.25a11.57,11.57,0,0,1-11.57,0ZM415.5,505.51a1.21,1.21,0,0,0,0-2.09l-126-72.73-126,72.73a1.21,1.21,0,0,0,0,2.09l120.78,69.74a10.51,10.51,0,0,0,10.41,0Z"/><g class="cls-3"><path class="cls-4" d="M308.67,542.16l42.57-24.57c4-2.3,3.47-6.3-1.11-9l-64.28-37.11c-4.59-2.65-11.52-2.93-15.49-.64l-42.57,24.57c-4,2.3-3.47,6.3,1.12,9l64.27,37.11C297.77,544.16,304.7,544.45,308.67,542.16Z"/></g><path class="cls-5" d="M216.69,183.07a108.76,108.76,0,0,0-4.37,31.81v73.51c0,65.92,46.44,146.36,103.53,179.32,11.38,6.57,22.32,10.73,32.57,12.71L339,503.62l50-28.71h0c18.75-10.83,30.36-34,30.36-67V334.43c0-65.92-46.45-146.37-103.54-179.33-28.32-16.35-54-18-72.72-7.43h0l-.38.23-.09,0L193.3,176.36Zm14.7,4.23L285,202.68l36.59,39.44,24.4,44.32L363,341.09,361.8,400.3l-5.28,60.19-2,4.91c-11.74-.38-24.84-4.34-38.67-12.33C265.75,424.15,225,353.55,225,295.71V222.19C225,208.57,227.28,196.88,231.39,187.3Z"/><g class="cls-6"><path class="cls-7" d="M339.29,502.9l15.91-9.13h0c18.75-10.82,30.36-34,30.36-67V353.29c0-65.92-46.44-146.36-103.53-179.32-25.28-14.6-48.45-17.43-66.44-10.38l9.48-5.47.09-.05.38-.22h0c18.71-10.54,44.4-8.92,72.72,7.43,57.09,33,103.54,113.41,103.54,179.33v73.51c0,31.84-10.86,54.52-28.5,65.78L339,503.62Z"/></g><path class="cls-8" d="M370.08,485.74c17.64-11.26,28.49-33.94,28.49-65.78V346.45c0-65.92-46.44-146.37-103.53-179.33-28.15-16.25-53.69-17.94-72.37-7.61l2.4-1.39.09-.05.38-.22h0c18.71-10.54,44.4-8.92,72.72,7.43,57.09,33,103.54,113.41,103.54,179.33v73.51c0,31.84-10.86,54.52-28.5,65.78L339,503.62l0-.05Z"/><path class="cls-9" d="M175,210.4l22.77-22.23,18.84-4.89a76.27,76.27,0,0,1,2.84-7.85,77.22,77.22,0,0,0,14.38,6.73c-5.67,10.41-8.86,23.88-8.86,40v73.52c0,57.84,40.76,128.44,90.86,157.36,13.71,7.92,26.71,11.88,38.38,12.31.22,5.35.77,10.7.85,16.05a76.31,76.31,0,0,1-7.94-1.25L329,499.93H298.1l-38.77-12.47-30.09-27.65L187,406.13l-21.69-61.67V253.78Z"/><path class="cls-10" d="M217.78,462.66l64.46,37.27,40.64-4.8L361,475.77l.13-157.1s-4.55-41.84-54.82-99.2C255.85,166.59,218,170.69,218,170.69Z"/><path class="cls-11" d="M160.67,318.07V244.56c0-65.92,46.45-92.73,103.54-59.77,20.41,11.78,39.46,29.64,55.51,50.73,13.73,18,28.45,41.68,34.68,59.48s6.59,21.59,9,32.41a168.21,168.21,0,0,1,4.31,36.7v73.52c0,65.92-46.44,92.73-103.53,59.77S160.67,384,160.67,318.07Zm12.68-66.19v73.51c0,57.85,40.76,128.44,90.86,157.37s90.86,5.39,90.86-52.45V356.79c0-57.84-40.76-128.44-90.86-157.36S173.35,194,173.35,251.88Z"/><g class="cls-6"><polygon class="cls-7" points="224.99 257.06 173.35 286.87 173.35 280.71 224.99 250.89 224.99 257.06"/></g><polygon class="cls-7" points="160.67 273.39 173.35 280.7 173.35 286.87 160.67 279.55 160.67 273.39"/><rect class="cls-12" x="177.14" y="236.78" width="15.35" height="43.22" transform="translate(-121.62 342.17) rotate(-69.72)"/><path class="cls-13" d="M141.65,253.71c0,5.39,2.14,18.4,8.73,28.82,8.28,13.1,32.51,42,36.06,46.2,0,0,.08.19.12.14s.12-.14.12-.14c3.56-4.21,27.86-33,36.17-46.12,6.61-10.4,8.79-23.41,8.79-28.79a44.88,44.88,0,0,0-44.82-44.94h-.24A44.89,44.89,0,0,0,141.65,253.71Zm12.53.92a32.47,32.47,0,1,1,32.43,32.51A32.46,32.46,0,0,1,154.18,254.63Z"/><polygon class="cls-14" points="202.43 273.08 190.88 252.49 213.15 244.05 202.43 273.08"/><polygon class="cls-14" points="161.89 258.09 184.05 249.96 172.62 229.07 161.89 258.09"/><polygon class="cls-15" points="172.61 229.07 171.58 231.86 185.74 255.66 212.12 246.84 213.15 244.05 172.61 229.07"/><rect class="cls-12" x="385.23" y="383.02" width="11.1" height="31.27" transform="translate(-118.62 627) rotate(-69.72)"/><path class="cls-13" d="M359.55,395.26a44.45,44.45,0,0,0,6.31,20.85c6,9.49,23.53,30.38,26.09,33.43,0,0,.06.14.09.1s.09-.1.09-.1c2.57-3,20.16-23.9,26.17-33.36a44.49,44.49,0,0,0,6.36-20.84,32.47,32.47,0,0,0-32.43-32.51h-.18A32.46,32.46,0,0,0,359.55,395.26Zm9.06.67a23.5,23.5,0,1,1,23.46,23.52A23.5,23.5,0,0,1,368.61,395.93Z"/><polygon class="cls-14" points="403.52 409.27 395.17 394.38 411.28 388.28 403.52 409.27"/><polygon class="cls-14" points="374.19 398.43 390.22 392.55 381.95 377.44 374.19 398.43"/><polygon class="cls-15" points="381.95 377.43 381.21 379.45 391.45 396.67 410.54 390.29 411.28 388.27 381.95 377.43"/><g class="cls-3"><g class="cls-16"><polygon class="cls-17" points="185.59 501.07 377.54 336.35 202.32 456.82 185.59 501.07"/><polygon class="cls-18" points="377.54 336.35 168.87 437.51 100.32 397.93 377.54 336.35"/><polygon class="cls-19" points="377.54 336.35 202.32 456.82 270.87 496.4 377.54 336.35"/><polygon class="cls-20" points="202.32 456.82 377.54 336.35 168.87 437.51 185.59 501.07 202.32 456.82"/><polygon class="cls-15" points="165.82 435.75 377.54 336.35 168.87 437.51 165.82 435.75"/><polygon class="cls-15" points="202.32 456.82 377.54 336.35 205.06 458.4 202.32 456.82"/></g></g><g class="cls-21"><polygon class="cls-10" points="185.59 501.07 377.54 336.35 202.32 456.82 185.59 501.07"/><polygon class="cls-22" points="377.54 336.35 168.87 437.51 100.32 397.93 377.54 336.35"/><polygon class="cls-23" points="377.54 336.35 202.32 456.82 270.87 496.4 377.54 336.35"/><polygon class="cls-15" points="372.76 339.63 270.35 493.29 204.54 455.3 202.32 456.82 270.87 496.4 377.54 336.35 372.76 339.63"/><polygon class="cls-24" points="202.32 456.82 377.54 336.35 168.87 437.51 185.59 501.07 202.32 456.82"/><polygon class="cls-15" points="165.82 435.75 377.54 336.35 168.87 437.51 165.82 435.75"/><polygon class="cls-15" points="202.32 456.82 377.54 336.35 205.06 458.4 202.32 456.82"/></g><g class="cls-3"><g class="cls-25"><polygon class="cls-17" points="149.17 385.56 373.2 268.14 175.4 346.2 149.17 385.56"/><polygon class="cls-26" points="373.2 268.14 147.14 319.87 89.23 265.91 373.2 268.14"/><polygon class="cls-27" points="373.2 268.14 175.4 346.2 233.31 400.16 373.2 268.14"/><polygon class="cls-28" points="175.4 346.2 373.2 268.14 147.14 319.87 149.17 385.56 175.4 346.2"/><polygon class="cls-15" points="144.57 317.47 373.2 268.14 147.14 319.87 144.57 317.47"/><polygon class="cls-15" points="175.4 346.2 373.2 268.14 177.72 348.36 175.4 346.2"/></g></g><g class="cls-29"><polygon class="cls-10" points="149.17 385.56 373.2 268.14 175.4 346.2 149.17 385.56"/><polygon class="cls-30" points="373.2 268.14 147.14 319.87 89.23 265.91 373.2 268.14"/><polygon class="cls-31" points="373.2 268.14 175.4 346.2 233.31 400.16 373.2 268.14"/><polygon class="cls-15" points="367.8 270.27 233.51 397.01 177.91 345.21 175.4 346.2 233.31 400.16 373.2 268.14 367.8 270.27"/><polygon class="cls-32" points="175.4 346.2 373.2 268.14 147.14 319.87 149.17 385.56 175.4 346.2"/><polygon class="cls-15" points="144.57 317.47 373.2 268.14 147.14 319.87 144.57 317.47"/><polygon class="cls-15" points="175.4 346.2 373.2 268.14 177.72 348.36 175.4 346.2"/></g></svg>