<svg id="Layer_1" data-name="Layer 1" xmlns="http://www.w3.org/2000/svg" xmlns:xlink="http://www.w3.org/1999/xlink" viewBox="0 0 523.22 749"><defs><style>.cls-1{fill:none;}.cls-2{fill:#995f5f;}.cls-2,.cls-24,.cls-9{opacity:0.7;}.cls-3{fill:#0b0244;opacity:0.4;}.cls-4{fill:url(#linear-gradient);}.cls-5{fill:url(#linear-gradient-2);}.cls-24,.cls-6{fill:#681313;}.cls-7{opacity:0.51;}.cls-8{fill:#9b3d3d;}.cls-9{fill:#99735f;}.cls-10{fill:url(#linear-gradient-3);}.cls-11{fill:url(#linear-gradient-4);}.cls-12{fill:#fff;}.cls-13{fill:#a02828;}.cls-14{fill:#efacac;}.cls-15{fill:#d89191;}.cls-16{fill:url(#linear-gradient-5);}.cls-17{opacity:0.11;}.cls-18{clip-path:url(#clip-path);}.cls-19{fill:url(#Áåçûìÿííûé_ãðàäèåíò_3);}.cls-20{fill:url(#Áåçûìÿííûé_ãðàäèåíò_3-2);}.cls-21{fill:#9198db;}.cls-22{fill:#adb1f2;}.cls-23{fill:#24126a;}.cls-25{fill:url(#Áåçûìÿííûé_ãðàäèåíò_3-3);}.cls-26{fill:url(#Áåçûìÿííûé_ãðàäèåíò_3-4);}.cls-27{fill:url(#Áåçûìÿííûé_ãðàäèåíò_3-5);}</style><linearGradient id="linear-gradient" x1="467.66" y1="268.8" x2="202.54" y2="268.8" gradientUnits="userSpaceOnUse"><stop offset="0" stop-color="#ffb9bb"/><stop offset="0.23" stop-color="#fdbdc0"/><stop offset="0.49" stop-color="#f9c7ce"/><stop offset="0.78" stop-color="#f1d8e6"/><stop offset="1" stop-color="#e9e9fd"/></linearGradient><linearGradient id="linear-gradient-2" x1="467.66" y1="336.79" x2="422.14" y2="336.79" gradientUnits="userSpaceOnUse"><stop offset="0" stop-color="#ff0007"/><stop offset="0.11" stop-color="#fe040c"/><stop offset="0.23" stop-color="#fa0f1a"/><stop offset="0.37" stop-color="#f32132"/><stop offset="0.51" stop-color="#ea3a53"/><stop offset="0.66" stop-color="#df5b7e"/><stop offset="0.81" stop-color="#d183b2"/><stop offset="0.96" stop-color="#c0b2ef"/><stop offset="1" stop-color="#bcbeff"/></linearGradient><linearGradient id="linear-gradient-3" x1="432.14" y1="413.22" x2="57.7" y2="413.22" gradientUnits="userSpaceOnUse"><stop offset="0" stop-color="#ff0007"/><stop offset="0.12" stop-color="#ff050c"/><stop offset="0.27" stop-color="#ff131a"/><stop offset="0.43" stop-color="#ff2b31"/><stop offset="0.59" stop-color="#ff4c51"/><stop offset="0.76" stop-color="#ff777b"/><stop offset="0.94" stop-color="#ffaaad"/><stop offset="1" stop-color="#ffbfc1"/></linearGradient><linearGradient id="linear-gradient-4" x1="432.22" y1="400.74" x2="57.58" y2="400.74" gradientUnits="userSpaceOnUse"><stop offset="0" stop-color="#ff9497"/><stop offset="0.18" stop-color="#fe989c"/><stop offset="0.39" stop-color="#fba4aa"/><stop offset="0.61" stop-color="#f6b8c2"/><stop offset="0.84" stop-color="#efd3e3"/><stop offset="1" stop-color="#e9e9fd"/></linearGradient><linearGradient id="linear-gradient-5" x1="242.88" y1="422" x2="146.98" y2="422" gradientUnits="userSpaceOnUse"><stop offset="0" stop-color="#ffbfc8"/><stop offset="0.26" stop-color="#fdc3cd"/><stop offset="0.56" stop-color="#f7cedb"/><stop offset="0.89" stop-color="#ede1f3"/><stop offset="1" stop-color="#e9e9fd"/></linearGradient><clipPath id="clip-path"><polygon id="SVGID" class="cls-1" points="234.53 125.18 455.75 252.91 428.32 414.64 207.24 287 234.53 125.18"/></clipPath><linearGradient id="Áåçûìÿííûé_ãðàäèåíò_3" x1="-6806.71" y1="317.7" x2="-6432.06" y2="317.7" gradientTransform="matrix(-1, 0, 0, 1, -6357.25, 0)" gradientUnits="userSpaceOnUse"><stop offset="0" stop-color="#c0bff6"/><stop offset="0.29" stop-color="#c5c4f7"/><stop offset="0.64" stop-color="#d3d2f9"/><stop offset="1" stop-color="#e9e9fd"/></linearGradient><linearGradient id="Áåçûìÿííûé_ãðàäèåíò_3-2" x1="-6831.37" y1="290.2" x2="-6735.47" y2="290.2" xlink:href="#Áåçûìÿííûé_ãðàäèåíò_3"/><linearGradient id="Áåçûìÿííûé_ãðàäèåíò_3-3" x1="17.4" y1="-776.01" x2="171.04" y2="-845.44" gradientTransform="matrix(0.79, 0.46, -0.16, 0.91, 146.48, 972.71)" xlink:href="#Áåçûìÿííûé_ãðàäèåíò_3"/><linearGradient id="Áåçûìÿííûé_ãðàäèåíò_3-4" x1="-3119.39" y1="6102.98" x2="-3048.99" y2="5949.79" gradientTransform="matrix(-0.79, -0.46, 0.18, -1.05, -3215.9, 5283.4)" xlink:href="#Áåçûìÿííûé_ãðàäèåíò_3"/><linearGradient id="Áåçûìÿííûé_ãðàäèåíò_3-5" x1="78.01" y1="-448.01" x2="58.58" y2="-280.53" gradientTransform="matrix(0.79, 0.46, -0.18, 1.05, 219.32, 545.88)" xlink:href="#Áåçûìÿííûé_ãðàäèåíò_3"/></defs><path class="cls-2" d="M388.9,574.31a13.63,13.63,0,0,1-6.68-1.54l-53.68-31a5,5,0,0,1-2.85-4.21c0-2,1.43-3.89,3.9-5.32l51.57-29.77c4.5-2.61,11.37-2.89,15.29-.61l53.68,31a5,5,0,0,1,2.85,4.2c0,2-1.42,3.9-3.9,5.32l-51.57,29.78A17.68,17.68,0,0,1,388.9,574.31Zm.87-72.79a16.46,16.46,0,0,0-8,2L330.2,533.3c-2.1,1.21-3.29,2.76-3.3,4.27a3.83,3.83,0,0,0,2.24,3.16l53.68,31c3.59,2.07,9.91,1.8,14.08-.61l51.57-29.77c2.1-1.21,3.3-2.77,3.3-4.28a3.82,3.82,0,0,0-2.24-3.15l-53.68-31A12.47,12.47,0,0,0,389.77,501.52Z"/><path class="cls-3" d="M57.62,476.45,284.79,607.61c2.48,1.43,6.25,1.59,8.4.34l135.56-78.26c2.15-1.24,1.88-3.42-.6-4.85L201,393.68c-2.49-1.43-6.25-1.59-8.41-.35L57,471.6C54.86,472.84,55.13,475,57.62,476.45Z"/><path class="cls-4" d="M202.58,285.29,231.3,114.91l-2.31-1,3.47-2v0a2.48,2.48,0,0,1,2.67.19l229.5,132.5a6.45,6.45,0,0,1,3,5.83L438.67,422.22a2.13,2.13,0,0,1-1.21,1.74h0l-3.39,2-.58-3.17.19.06L205.56,291.11A6.47,6.47,0,0,1,202.58,285.29Z"/><path class="cls-5" d="M463.36,249.32l3.77-1.67a5.17,5.17,0,0,1,.48,2.84L438.67,422.22a2.13,2.13,0,0,1-1.21,1.74h0l-3.39,2-.58-3.17.19.06-11.54-6.67Z"/><path class="cls-6" d="M202,293.18,431.47,425.69c1.77,1,3.29.43,3.6-1.41L464,252.56a6.44,6.44,0,0,0-3-5.83L231.53,114.22c-1.77-1-3.29-.43-3.6,1.4L199,287.35A6.5,6.5,0,0,0,202,293.18Z"/><g class="cls-7"><polygon class="cls-8" points="234.53 125.18 455.75 252.91 428.32 414.64 207.24 287 234.53 125.18"/></g><path class="cls-9" d="M291.55,540.52a10.37,10.37,0,0,1-5.05-1.27L59.33,408.09A4,4,0,0,1,57,404.82a3.1,3.1,0,0,1,1.76-2.63l135.56-78.26c2.35-1.36,6.31-1.21,9,.34L430.47,455.43a4.05,4.05,0,0,1,2.36,3.27,3.09,3.09,0,0,1-1.76,2.63L295.51,539.6A8.07,8.07,0,0,1,291.55,540.52ZM198.24,324.21a6.8,6.8,0,0,0-3.35.77L59.33,403.24a2,2,0,0,0-1.15,1.58c0,.77.64,1.58,1.76,2.22L287.11,538.2c2.27,1.31,5.84,1.47,7.79.35l135.56-78.27a2,2,0,0,0,1.15-1.58c0-.77-.63-1.58-1.75-2.22L202.69,325.32A9.23,9.23,0,0,0,198.24,324.21Z"/><path class="cls-10" d="M57.7,374.48,70.22,381l125.59-72.51c2.1-1.21,5.77-1.06,8.2.34L420.62,433.91c2.07-1.16,11.52-5.7,11.52-5.7l-4.58,11.94h0a2.73,2.73,0,0,1-1.28,1.42L294,517.93c-2.1,1.21-5.77,1.06-8.19-.34l-221.66-128a3.93,3.93,0,0,1-1.86-2h0Z"/><path class="cls-11" d="M59.63,376.54,286.8,507.7c2.49,1.43,6.25,1.59,8.41.35l135.56-78.27c2.15-1.24,1.88-3.41-.61-4.85L203,293.77c-2.48-1.43-6.24-1.59-8.4-.35L59,371.69C56.88,372.93,57.15,375.11,59.63,376.54Z"/><path class="cls-12" d="M59.63,375.52,286.8,506.68c2.49,1.44,6.25,1.59,8.41.35l135.56-78.27a2.7,2.7,0,0,0,1.36-1.59,2.32,2.32,0,0,1-1.36,2.61L295.21,508.05c-2.16,1.24-5.92,1.08-8.41-.35L59.63,376.54c-1.61-.93-2.27-2.17-2-3.26A3.85,3.85,0,0,0,59.63,375.52Z"/><path class="cls-13" d="M355.33,479.33v-2.49c0-.24-.15-.35-.33-.25l-8.78,5.08a.75.75,0,0,0-.32.61v2.49c0,.24.14.35.32.24l8.78-5.07A.77.77,0,0,0,355.33,479.33Z"/><path class="cls-13" d="M342.19,486.91v-2.49c0-.23-.15-.34-.33-.24l-8.78,5.07a.76.76,0,0,0-.32.62v2.49c0,.23.14.34.32.24l8.78-5.07A.79.79,0,0,0,342.19,486.91Z"/><path class="cls-14" d="M395.42,422.45l-188.77-109a4.06,4.06,0,0,0-4.07,0l-67.23,38.89a1.45,1.45,0,0,0,0,2.51L324.05,463.8a4,4,0,0,0,4.06,0L395.42,425A1.45,1.45,0,0,0,395.42,422.45Z"/><path class="cls-15" d="M395.42,425l-.67.39-188.1-108.6a4.06,4.06,0,0,0-4.07,0L136,355.25l-.67-.39a1.45,1.45,0,0,1,0-2.51l67.23-38.89a4.06,4.06,0,0,1,4.07,0l188.77,109A1.45,1.45,0,0,1,395.42,425Z"/><polygon class="cls-6" points="197.51 323.31 361.49 417.99 368.78 413.77 204.8 319.1 197.51 323.31"/><polygon class="cls-6" points="179.63 333.63 333.44 422.43 340.73 418.22 186.92 329.42 179.63 333.63"/><polygon class="cls-6" points="167.99 340.35 349.08 444.91 356.37 440.7 175.28 336.14 167.99 340.35"/><polygon class="cls-6" points="156.34 347.07 337.44 451.63 344.73 447.42 163.64 342.87 156.34 347.07"/><polygon class="cls-6" points="144.7 353.8 325.8 458.35 333.09 454.14 151.99 349.59 144.7 353.8"/><polygon class="cls-6" points="371.39 423.7 378.69 427.92 385.98 423.7 378.69 419.5 371.39 423.7"/><polygon class="cls-6" points="345.68 429.5 360.81 438.24 368.1 434.03 352.97 425.29 345.68 429.5"/><path class="cls-16" d="M199.38,448.83l-50.9-29.39c-2-1.15-2-3,0-4.16l34.8-20.1a8,8,0,0,1,7.21,0l50.9,29.39c2,1.15,2,3,0,4.16l-34.81,20.1A8,8,0,0,1,199.38,448.83Z"/><path class="cls-15" d="M241.39,426.27l-50.9-29.39a8,8,0,0,0-7.21,0L148.48,417a3.11,3.11,0,0,0-1.26,1.23c-.52-1-.12-2.14,1.26-2.93l34.8-20.1a8,8,0,0,1,7.21,0l50.9,29.39c1.37.79,1.78,1.93,1.25,2.93A3.21,3.21,0,0,0,241.39,426.27Z"/><g class="cls-17"><g class="cls-18"><path class="cls-19" d="M202.77,293.5,429.94,424.66c2.49,1.44,6.25,1.59,8.4.35L573.9,346.74c2.16-1.24,1.89-3.41-.6-4.85L346.13,210.73c-2.49-1.43-6.25-1.59-8.4-.34L202.17,288.65C200,289.9,200.28,292.07,202.77,293.5Z"/><path class="cls-20" d="M430.62,317l-50.91-29.39c-2-1.15-2-3,0-4.16l34.81-20.1a8,8,0,0,1,7.21,0l50.9,29.39c2,1.15,2,3,0,4.16L437.82,317A7.94,7.94,0,0,1,430.62,317Z"/><path class="cls-21" d="M472.63,294.46l-50.9-29.38a8,8,0,0,0-7.21,0l-34.81,20.09a3.21,3.21,0,0,0-1.25,1.23c-.52-1-.12-2.14,1.25-2.93l34.81-20.1a8,8,0,0,1,7.21,0l50.9,29.39c1.37.8,1.78,1.93,1.25,2.93A3.21,3.21,0,0,0,472.63,294.46Z"/><path class="cls-22" d="M495,362.94,306.23,254a4.1,4.1,0,0,0-4.07,0l-67.23,38.9a1.45,1.45,0,0,0,0,2.51L423.63,404.3a4.09,4.09,0,0,0,4.06,0L495,365.45A1.45,1.45,0,0,0,495,362.94Z"/><path class="cls-21" d="M495,365.45l-.67.39-188.1-108.6a4.08,4.08,0,0,0-4.07,0l-66.55,38.5-.67-.39a1.45,1.45,0,0,1,0-2.51L302.16,254a4.1,4.1,0,0,1,4.07,0L495,362.94A1.45,1.45,0,0,1,495,365.45Z"/><polygon class="cls-23" points="252.53 290.19 416.99 385.15 410.47 388.91 246.01 293.96 252.53 290.19"/><polygon class="cls-23" points="269.86 280.19 426.17 370.44 419.66 374.2 263.34 283.95 269.86 280.19"/><polygon class="cls-23" points="437.84 377.18 452.44 385.61 445.93 389.37 431.33 380.94 437.84 377.18"/><polygon class="cls-23" points="424.95 389.74 435.12 395.61 428.6 399.37 418.44 393.5 424.95 389.74"/><polygon class="cls-23" points="280.71 273.92 463.3 379.34 456.79 383.1 274.2 277.68 280.71 273.92"/><polygon class="cls-23" points="291.57 267.65 474.16 373.07 467.64 376.83 285.06 271.41 291.57 267.65"/><polygon class="cls-23" points="302.43 261.38 485.02 366.8 478.5 370.56 295.91 265.15 302.43 261.38"/></g></g><polygon class="cls-24" points="279.62 178.3 262.95 276.11 395.88 352.86 412.55 255.05 279.62 178.3"/><polygon class="cls-25" points="379.21 363.5 246.28 286.75 262.95 188.94 395.88 265.69 379.21 363.5"/><polygon class="cls-26" points="379.21 363.5 322.87 265.7 246.28 286.75 379.21 363.5"/><polygon class="cls-27" points="262.95 188.94 319.29 286.74 395.88 265.69 262.95 188.94"/></svg>